<?xml version="1.0" encoding="UTF-8"?>
<svg width="32px" height="32px" viewBox="0 0 32 32" version="1.1" xmlns="http://www.w3.org/2000/svg" xmlns:xlink="http://www.w3.org/1999/xlink">
    <title>Ollama</title>
    <defs>
        <path d="M0,0 L32,0 L32,32 L0,32 L0,0 Z" id="path-1"></path>
    </defs>
    <g id="Ollama" stroke="none" fill="none" xlink:href="#path-1" fill-rule="evenodd">
        <g id="ollama" transform="translate(2, 2)" fill="#000000">
            <path d="M9.2225,1.27166667 C9.4745,1.37083333 9.702,1.53416667 9.9085,1.75 C10.2526667,2.107 10.5431667,2.618 10.7648333,3.2235 C10.9876667,3.8325 11.1323333,4.50683333 11.1871667,5.1835 C11.9217157,4.76793895 12.736914,4.51490521 13.5776667,4.4415 L13.6371667,4.43683333 C14.6521667,4.35516667 15.6555,4.53833333 16.5305,4.98983333 C16.6483333,5.05166667 16.7638333,5.11816667 16.877,5.18816667 C16.9353333,4.52433333 17.0776667,3.86516667 17.297,3.27016667 C17.5186667,2.6635 17.8091667,2.15366667 18.1521667,1.7955 C18.3438518,1.58814197 18.5783205,1.42492949 18.8393333,1.31716667 C19.1391667,1.2005 19.4576667,1.1795 19.768,1.26816667 C20.2358333,1.40116667 20.6371667,1.6975 20.9533333,2.128 C21.2426667,2.52116667 21.4596667,3.02516667 21.6078333,3.6295 C21.8761667,4.71916667 21.9228333,6.153 21.742,7.882 L21.8038333,7.92866667 L21.8341667,7.95083333 C22.7173333,8.62283333 23.3321667,9.58066667 23.6576667,10.6925 C24.1651667,12.4273333 23.9096667,14.3733333 23.0346667,15.4618333 L23.0136667,15.4863333 L23.016,15.4898333 C23.5025,16.3788333 23.7976667,17.318 23.8606667,18.2898333 L23.863,18.3248333 C23.9376667,19.5673333 23.6296667,20.818 22.9133333,22.0465 L22.9051667,22.0581667 L22.9168333,22.0861667 C23.4675,23.436 23.6401667,24.7951667 23.4278333,26.1531667 L23.4208333,26.1986667 C23.3523347,26.6116816 22.9625324,26.8913791 22.5493333,26.824 C22.3508666,26.7930136 22.1728909,26.6843167 22.0546921,26.5219028 C21.9364934,26.359489 21.8877902,26.1567124 21.9193333,25.9583333 C22.1141667,24.7531667 21.931,23.5445 21.3593333,22.3148333 C21.2509349,22.0826651 21.268532,21.8112288 21.406,21.595 L21.4106667,21.588 C22.1153333,20.51 22.407,19.453 22.344,18.4146667 C22.2903333,17.5058333 21.9648333,16.6133333 21.4106667,15.7628333 C21.1863972,15.4187913 21.2799261,14.9584212 21.6206667,14.7291667 L21.6311667,14.7221667 C21.9146667,14.5366667 22.176,14.063 22.3078333,13.4155 C22.4532968,12.6498539 22.4153153,11.860639 22.197,11.1125 C21.9578333,10.2958333 21.5203333,9.6145 20.9078333,9.149 C20.2136667,8.61933333 19.2943333,8.36383333 18.1311667,8.43733333 C17.8199645,8.45757008 17.5278535,8.2860935 17.3938333,8.0045 C17.0275,7.22866667 16.4931667,6.67333333 15.827,6.32916667 C15.1874356,6.00996516 14.4714062,5.87581066 13.7596667,5.94183333 C12.3071667,6.05733333 11.0261667,6.87633333 10.6446667,7.90883333 C10.5341457,8.20641775 10.2504445,8.4040784 9.933,8.40466667 C8.68816667,8.407 7.7245,8.69866667 7.01983333,9.22483333 C6.41083333,9.67983333 5.9955,10.3156667 5.77616667,11.0775 C5.57769274,11.7945985 5.5505178,12.5483034 5.69683333,13.2778333 C5.8275,13.9288333 6.083,14.4678333 6.37583333,14.7583333 L6.38516667,14.7665 C6.6325,15.008 6.685,15.3848333 6.51233333,15.6823333 C6.09233333,16.408 5.7785,17.4895 5.72716667,18.529 C5.66883333,19.7166667 5.94416667,20.748 6.566,21.4876667 L6.58466667,21.5098333 C6.77632748,21.7331913 6.81966953,22.0479915 6.6955,22.3148333 C6.0235,23.7568333 5.817,24.9421667 6.03983333,25.8755 C6.12312151,26.2790637 5.86992004,26.6755662 5.46876389,26.76977 C5.06760773,26.8639737 4.6643833,26.6216201 4.55933333,26.2231667 C4.27583333,25.0355 4.46833333,23.6751667 5.11116667,22.1421667 L5.1275,22.1013333 L5.11816667,22.0873333 C4.80222402,21.6206617 4.56642589,21.1045083 4.4205,20.5601667 L4.41466667,20.538 C4.2375811,19.8588627 4.16790425,19.1561894 4.20816667,18.4555 C4.2595,17.3938333 4.5325,16.3065 4.93383333,15.4338333 L4.94783333,15.4035 L4.9455,15.4011667 C4.60366667,14.9135 4.3505,14.2893333 4.2105,13.5986667 L4.20466667,13.5706667 C4.01177626,12.6072832 4.04895033,11.6119774 4.31316667,10.6656667 C4.61883333,9.59816667 5.21966667,8.68116667 6.10516667,8.0185 C6.17516667,7.966 6.24866667,7.9135 6.32216667,7.8645 C6.13666667,6.12266667 6.18333333,4.6795 6.45283333,3.58283333 C6.601,2.9785 6.81916667,2.4745 7.1085,2.08133333 C7.4235,1.652 7.82483333,1.35566667 8.29266667,1.2215 C8.603,1.13283333 8.92266667,1.15266667 9.2225,1.2705 L9.2225,1.27166667 Z M14.0245,11.8766667 C15.1165,11.8766667 16.1245,12.2418333 16.8781667,12.8741667 C17.6131667,13.489 18.0506667,14.315 18.0506667,15.1375 C18.0506667,16.1735 17.577,16.9808333 16.7288333,17.4965 C16.0055,17.934 15.036,18.1463333 13.9253333,18.1463333 C12.7481667,18.1463333 11.7425,17.8441667 11.0168333,17.29 C10.297,16.7416667 9.89333333,15.9716667 9.89333333,15.1375 C9.89333333,14.3126667 10.3576667,13.4843333 11.1253333,12.8671667 C11.9046667,12.2406667 12.9336667,11.8766667 14.0245,11.8766667 Z M14.0245,12.922 C13.2151061,12.9149333 12.427184,13.1822347 11.7891667,13.6803333 C11.2513333,14.112 10.9468333,14.6545 10.9468333,15.1386667 C10.9468333,15.638 11.1918333,16.1058333 11.6585,16.4616667 C12.1893333,16.8665 12.9698333,17.101 13.9253333,17.101 C14.8575,17.101 15.6438333,16.9295 16.1793333,16.604 C16.7195,16.2773333 16.996,15.8036667 16.996,15.1375 C16.996,14.644 16.709,14.0991667 16.1991667,13.6721667 C15.6345,13.1996667 14.8691667,12.922 14.0245,12.922 Z M14.7968333,14.3336667 L14.8015,14.3383333 C14.9415,14.5145 14.9123333,14.77 14.7361667,14.91 L14.3955,15.1783333 L14.3955,15.6986667 C14.3942146,15.9398354 14.1980046,16.1344799 13.9568333,16.1338349 C13.7156621,16.1344799 13.5194521,15.9398354 13.5181667,15.6986667 L13.5181667,15.162 L13.202,14.9076667 C13.117762,14.8401647 13.0639712,14.7418154 13.0525796,14.6344711 C13.041188,14.5271269 13.0731389,14.4196785 13.1413333,14.336 C13.2846536,14.1615341 13.5417259,14.1349943 13.7176667,14.2765 L13.9685,14.4771667 L14.2251667,14.2741667 C14.4003503,14.1357716 14.6539045,14.1621619 14.7968333,14.3336667 L14.7968333,14.3336667 Z M8.91683333,12.0948333 C9.4745,12.0948333 9.92833402,12.5498333 9.92833402,13.111 C9.92897862,13.6711144 9.47577996,14.1258794 8.91566667,14.1271667 C8.35646497,14.1252384 7.90416391,13.6713717 7.90416391,13.1121667 C7.90287572,12.5520513 8.35555312,12.0967633 8.91566667,12.0948333 L8.91683333,12.0948333 Z M19.0738333,12.0948333 C19.6338333,12.0948333 20.0865007,12.5498333 20.0865007,13.111 C20.0871453,13.6711144 19.6339466,14.1258794 19.0738333,14.1271667 C18.5146316,14.1252384 18.0623306,13.6713717 18.0623306,13.1121667 C18.0610424,12.5520513 18.5137198,12.0967633 19.0738333,12.0948333 L19.0738333,12.0948333 Z M8.68,2.68333333 L8.6765,2.68566667 C8.54134389,2.74443968 8.42592864,2.84082154 8.344,2.96333333 L8.33816667,2.97033333 C8.17716667,3.19083333 8.03716667,3.51516667 7.93216667,3.941 C7.73383333,4.74833333 7.68016667,5.84383333 7.7875,7.18666667 C8.28916667,7.03733333 8.83633333,6.944 9.4255,6.91016667 L9.43716667,6.909 L9.45933333,6.86933333 C9.513,6.77366667 9.57016667,6.6815 9.632,6.5905 C9.7755,5.691 9.65766667,4.6165 9.33683333,3.73916667 C9.1805,3.3145 8.99033333,2.98083333 8.80833333,2.79066667 C8.77076028,2.75112919 8.72888973,2.71591098 8.6835,2.68566667 L8.68,2.68333333 Z M19.383,2.73 L19.3806667,2.73116667 C19.3352769,2.76141098 19.2934064,2.79662919 19.2558333,2.83616667 C19.0738333,3.02633333 18.8825,3.36116667 18.7273333,3.78583333 C18.389,4.71216667 18.2758333,5.85783333 18.459,6.7865 L18.5266667,6.89966667 L18.536,6.916 L18.571,6.916 C19.1500112,6.91614917 19.7260008,6.99944371 20.2813333,7.16333333 C20.3816667,5.852 20.3256667,4.77983333 20.132,3.98766667 C20.027,3.56183333 19.887,3.2375 19.7248333,3.017 L19.7201667,3.01 C19.6384063,2.88705687 19.5229745,2.79025619 19.3876667,2.73116667 L19.383,2.73116667 L19.383,2.73 Z" id="Shape"></path>
        </g>
    </g>
</svg>