<?xml version="1.0" encoding="UTF-8"?>
<svg width="32px" height="32px" viewBox="0 0 32 32" version="1.1" xmlns="http://www.w3.org/2000/svg" xmlns:xlink="http://www.w3.org/1999/xlink">
    <title>OpenAI</title>
    <defs>
        <path d="M0,0 L32,0 L32,32 L0,32 L0,0 Z" id="path-1"></path>
    </defs>
    <g id="OpenAI" stroke="none" fill="none" xlink:href="#path-1" fill-rule="nonzero">
        <path d="M27.2921002,13.6395177 C27.8883137,11.8684369 27.6819278,9.92982538 26.725733,8.31955212 C25.2880023,5.85102767 22.3983885,4.58125554 19.5763498,5.17792546 C17.9860068,3.43294441 15.5729731,2.65698059 13.2455806,3.14212798 C10.918188,3.62727536 9.02972841,5.29988992 8.29106948,7.53035383 C6.43733821,7.90531148 4.83737768,9.05017235 3.90059827,10.6719805 C2.44713771,13.136577 2.77698971,16.2455122 4.71626803,18.3598659 C4.11784897,20.1301168 4.32237945,22.0689309 5.27747342,23.6797232 C6.71700715,26.1491296 9.60853482,27.4188503 12.4321283,26.8214581 C13.6880184,28.2165166 15.4923073,29.010276 17.3836951,28.9998995 C20.2763062,29.0024226 22.8389341,27.1604696 23.7225703,24.4435718 C25.5760442,24.067968 27.1757733,22.9232333 28.1130416,21.3018368 C29.5488958,18.8415804 29.2176019,15.7494665 27.2921002,13.639626 L27.2921002,13.6395177 Z M17.3836951,27.2981248 C16.2291249,27.2999214 15.1107595,26.9007519 14.2246908,26.1705998 L14.3805324,26.0835009 L19.628297,23.0954889 C19.8940144,22.9417678 20.0579172,22.6612763 20.0595795,22.3574233 L20.0595795,15.0592079 L22.278043,16.3251752 C22.3002847,16.3362911 22.3157961,16.3572285 22.3197765,16.3815078 L22.3197765,22.4292474 C22.3139772,25.11592 20.1073941,27.292458 17.3836951,27.2981248 L17.3836951,27.2981248 Z M6.77383808,22.8289923 C6.19481083,21.8427602 5.98691167,20.6867027 6.18671401,19.5641922 L6.34266541,19.6564911 L11.5955918,22.644503 C11.8602559,22.7976943 12.188221,22.7976943 12.4528852,22.644503 L18.8697362,18.9953411 L18.8697362,21.5220756 C18.8685149,21.5486055 18.8550898,21.5731363 18.8332743,21.5886998 L13.5179674,24.6125696 C11.1560076,25.9547353 8.13832293,25.1566673 6.77383808,22.8289923 L6.77383808,22.8289923 Z M5.39180117,11.5535859 C5.97484352,10.561015 6.89512042,9.80394812 7.98970988,9.41641315 L7.98970988,15.5666348 C7.98568681,15.869254 8.14891778,16.1500599 8.41572078,16.2995005 L14.8013815,19.9332792 L12.5828081,21.1991381 C12.5584279,21.211907 12.5292125,21.211907 12.5048324,21.1991381 L7.19995881,18.1804682 C4.84269396,16.8326505 4.03424794,13.8582718 5.39180117,11.5280196 L5.39180117,11.5535859 Z M23.618676,15.7306494 L17.2122583,12.0610128 L19.42567,10.8000289 C19.4500501,10.7872599 19.4792655,10.7872599 19.5036457,10.8000289 L24.8085192,13.8238987 C26.464266,14.7662993 27.4194962,16.5670104 27.2604769,18.4461012 C27.1014577,20.3251919 25.8567839,21.9447619 24.0655536,22.6033369 L24.0655536,16.4531152 C24.0561956,16.1513473 23.88634,15.8767685 23.6185661,15.7305411 L23.618676,15.7306494 Z M25.8269258,12.4556661 L25.6709744,12.3633673 L20.4284814,9.349789 C20.1621925,9.19564594 19.8322053,9.19564594 19.5659164,9.349789 L13.1544468,12.9988425 L13.1544468,10.4722164 C13.1516648,10.4460457 13.1636363,10.420474 13.1856371,10.4055922 L18.4905107,7.386814 C20.1502703,6.44364831 22.2131115,6.53166005 23.7841124,7.61266709 C25.3551133,8.69367414 26.1512114,10.5729009 25.8270356,12.435083 L25.8269258,12.4556661 Z M11.943627,16.9348674 L9.72516341,15.6741001 C9.70269452,15.6607553 9.68740262,15.6382483 9.68342994,15.6126759 L9.68342994,9.58042772 C9.68592255,7.69132196 10.7948453,5.97376399 12.5292584,5.1726588 C14.2636715,4.37155361 16.311183,4.63119132 17.7837873,5.83896704 L17.6278359,5.92617427 L12.3801811,8.91396955 C12.1144637,9.06769066 11.9505608,9.34818218 11.9488986,9.65203515 L11.943627,16.9348674 Z M13.1490654,14.3723834 L16.0067101,12.7476207 L18.8697362,14.3723834 L18.8697362,17.621692 L16.0171435,19.2463463 L13.154337,17.621692 L13.1490654,14.3723834 Z" id="Shape" fill="#000000"></path>
    </g>
</svg>